<?xml version="1.0" encoding="UTF-8"?>
<svg xmlns="http://www.w3.org/2000/svg" viewBox="0 0 64 64" width="512" height="512"><g id="outline"><path d="M27.553,16.9l.9-1.789c-.749-.377-1.9-1.228-2-1.853-.011-.074-.039-.245.262-.546a.774.774,0,0,1,.647-.265c.972.068,2.337,1.484,2.847,2.159l1.6-1.2c-.215-.286-2.158-2.8-4.3-2.953a2.774,2.774,0,0,0-2.2.846,2.551,2.551,0,0,0-.821,2.281C24.771,15.417,27.091,16.664,27.553,16.9Z"/><path d="M36.646,12.442a.786.786,0,0,1,.647.265c.3.3.273.472.262.546-.1.625-1.255,1.476-2,1.853l.9,1.789c.462-.231,2.782-1.478,3.081-3.321a2.551,2.551,0,0,0-.821-2.281,2.775,2.775,0,0,0-2.2-.846c-2.145.153-4.088,2.667-4.3,2.953l1.6,1.2C34.306,13.926,35.666,12.512,36.646,12.442Z"/><path d="M27.553,23.9l.9-1.789c-.749-.377-1.9-1.228-2-1.853-.011-.074-.039-.245.262-.546a.768.768,0,0,1,.647-.265c.972.068,2.337,1.484,2.847,2.159l1.6-1.2c-.215-.286-2.158-2.8-4.3-2.953a2.774,2.774,0,0,0-2.2.846,2.551,2.551,0,0,0-.821,2.281C24.771,22.417,27.091,23.664,27.553,23.9Z"/><path d="M20.443,44.619a.9.9,0,0,0-.1-.043,2.492,2.492,0,0,0-1.922.13,2.671,2.671,0,0,0-1.384,1.571.444.444,0,0,0-.015.052,2.927,2.927,0,0,0,1.455,3.18L22,51.573V56a3,3,0,0,0,0,6H42a3,3,0,0,0,0-6V51.573l3.533-2.07a2.922,2.922,0,0,0,1.446-3.174.444.444,0,0,0-.015-.052,2.671,2.671,0,0,0-1.384-1.571,2.492,2.492,0,0,0-1.922-.13.9.9,0,0,0-.1.043L42,45.389v-.816l3.533-2.07a2.922,2.922,0,0,0,1.446-3.174.444.444,0,0,0-.015-.052,2.671,2.671,0,0,0-1.384-1.571,2.5,2.5,0,0,0-1.922-.13.9.9,0,0,0-.1.043L42,38.389v-.816l3.533-2.07a2.922,2.922,0,0,0,1.446-3.174.444.444,0,0,0-.015-.052,2.671,2.671,0,0,0-1.384-1.571,2.5,2.5,0,0,0-1.922-.13.9.9,0,0,0-.1.043L42,31.389v-.816l3.533-2.07a2.922,2.922,0,0,0,1.446-3.174.444.444,0,0,0-.015-.052,2.671,2.671,0,0,0-1.384-1.571,2.5,2.5,0,0,0-1.922-.13.9.9,0,0,0-.1.043L42,24.389v-.816l3.533-2.07a2.922,2.922,0,0,0,1.446-3.174.444.444,0,0,0-.015-.052,2.671,2.671,0,0,0-1.384-1.571,2.5,2.5,0,0,0-1.922-.13.9.9,0,0,0-.1.043L42,17.389v-.816l3.533-2.07a2.922,2.922,0,0,0,1.446-3.174.444.444,0,0,0-.015-.052A2.671,2.671,0,0,0,45.58,9.706a2.5,2.5,0,0,0-1.922-.13.9.9,0,0,0-.1.043l-1.689.836a9.986,9.986,0,0,0-19.736,0l-1.689-.836a.9.9,0,0,0-.1-.043,2.5,2.5,0,0,0-1.922.13,2.671,2.671,0,0,0-1.384,1.571.444.444,0,0,0-.015.052,2.927,2.927,0,0,0,1.455,3.18L22,16.573v.816l-1.557-.77a.9.9,0,0,0-.1-.043,2.5,2.5,0,0,0-1.922.13,2.671,2.671,0,0,0-1.384,1.571.444.444,0,0,0-.015.052,2.927,2.927,0,0,0,1.455,3.18L22,23.573v.816l-1.557-.77a.9.9,0,0,0-.1-.043,2.5,2.5,0,0,0-1.922.13,2.671,2.671,0,0,0-1.384,1.571.444.444,0,0,0-.015.052,2.927,2.927,0,0,0,1.455,3.18L22,30.573v.816l-1.557-.77a.9.9,0,0,0-.1-.043,2.5,2.5,0,0,0-1.922.13,2.671,2.671,0,0,0-1.384,1.571.444.444,0,0,0-.015.052,2.927,2.927,0,0,0,1.455,3.18L22,37.573v.816l-1.557-.77a.9.9,0,0,0-.1-.043,2.5,2.5,0,0,0-1.922.13,2.671,2.671,0,0,0-1.384,1.571.444.444,0,0,0-.015.052,2.927,2.927,0,0,0,1.455,3.18L22,44.573v.816ZM42,12.621l2.373-1.174a.574.574,0,0,1,.337.06.682.682,0,0,1,.348.376,1.016,1.016,0,0,1-.545.9L42,14.255Zm0,7,2.373-1.174a.566.566,0,0,1,.337.06.682.682,0,0,1,.348.376,1.016,1.016,0,0,1-.545.9L42,21.255Zm0,7,2.373-1.174a.566.566,0,0,1,.337.06.682.682,0,0,1,.348.376,1.016,1.016,0,0,1-.545.9L42,28.255Zm0,7,2.373-1.174a.566.566,0,0,1,.337.06.682.682,0,0,1,.348.376,1.016,1.016,0,0,1-.545.9L42,35.255Zm0,7,2.373-1.174a.574.574,0,0,1,.337.06.682.682,0,0,1,.348.376,1.016,1.016,0,0,1-.545.9L42,42.255Zm0,7,2.373-1.174a.574.574,0,0,1,.337.06.682.682,0,0,1,.348.376,1.016,1.016,0,0,1-.545.9L42,49.255Zm-22.5.168a1.024,1.024,0,0,1-.554-.906.682.682,0,0,1,.348-.376.564.564,0,0,1,.337-.06L22,47.621v1.634Zm0-35a1.024,1.024,0,0,1-.554-.906.682.682,0,0,1,.348-.376.564.564,0,0,1,.337-.06L22,12.621v1.634Zm0,7a1.024,1.024,0,0,1-.554-.906.682.682,0,0,1,.348-.376.556.556,0,0,1,.337-.06L22,19.621v1.634Zm0,7a1.024,1.024,0,0,1-.554-.906.682.682,0,0,1,.348-.376.556.556,0,0,1,.337-.06L22,26.621v1.634Zm0,7a1.024,1.024,0,0,1-.554-.906.682.682,0,0,1,.348-.376.556.556,0,0,1,.337-.06L22,33.621v1.634Zm0,7a1.024,1.024,0,0,1-.554-.906.682.682,0,0,1,.348-.376.564.564,0,0,1,.337-.06L22,40.621v1.634ZM29,58V56H24V12a8,8,0,0,1,16,0V56H38v2h4a1,1,0,0,1,0,2H22a1,1,0,0,1,0-2Z"/><path d="M36.646,19.442a.783.783,0,0,1,.647.265c.3.3.273.472.262.546-.1.625-1.255,1.476-2,1.853l.9,1.789c.462-.231,2.782-1.478,3.081-3.321a2.551,2.551,0,0,0-.821-2.281,2.775,2.775,0,0,0-2.2-.846c-2.145.153-4.088,2.667-4.3,2.953l1.6,1.2C34.306,20.926,35.666,19.512,36.646,19.442Z"/><path d="M27.553,30.9l.9-1.789c-.749-.377-1.9-1.228-2-1.853-.011-.074-.039-.245.262-.546a.768.768,0,0,1,.647-.265c.972.068,2.337,1.484,2.847,2.159l1.6-1.2c-.215-.286-2.158-2.8-4.3-2.953a2.774,2.774,0,0,0-2.2.846,2.551,2.551,0,0,0-.821,2.281C24.771,29.417,27.091,30.664,27.553,30.9Z"/><path d="M36.646,26.442a.783.783,0,0,1,.647.265c.3.3.273.472.262.546-.1.625-1.255,1.476-2,1.853l.9,1.789c.462-.231,2.782-1.478,3.081-3.321a2.551,2.551,0,0,0-.821-2.281,2.775,2.775,0,0,0-2.2-.846c-2.145.153-4.088,2.667-4.3,2.953l1.6,1.2C34.306,27.926,35.666,26.512,36.646,26.442Z"/><path d="M27.553,37.9l.9-1.789c-.749-.377-1.9-1.228-2-1.853-.011-.074-.039-.245.262-.546a.765.765,0,0,1,.647-.265c.972.068,2.337,1.484,2.847,2.159l1.6-1.2c-.215-.286-2.158-2.8-4.3-2.953a2.771,2.771,0,0,0-2.2.846,2.551,2.551,0,0,0-.821,2.281C24.771,36.417,27.091,37.664,27.553,37.9Z"/><path d="M36.646,33.442a.781.781,0,0,1,.647.265c.3.3.273.472.262.546-.1.625-1.255,1.476-2,1.853l.9,1.789c.462-.231,2.782-1.478,3.081-3.321a2.551,2.551,0,0,0-.821-2.281,2.772,2.772,0,0,0-2.2-.846c-2.145.153-4.088,2.667-4.3,2.953l1.6,1.2C34.306,34.926,35.666,33.512,36.646,33.442Z"/><path d="M27.553,44.9l.9-1.789c-.749-.377-1.9-1.228-2-1.853-.011-.074-.039-.245.262-.546a.765.765,0,0,1,.647-.265c.972.068,2.337,1.484,2.847,2.159l1.6-1.2c-.215-.286-2.158-2.8-4.3-2.953a2.771,2.771,0,0,0-2.2.846,2.551,2.551,0,0,0-.821,2.281C24.771,43.417,27.091,44.664,27.553,44.9Z"/><path d="M36.646,40.442a.781.781,0,0,1,.647.265c.3.3.273.472.262.546-.1.625-1.255,1.476-2,1.853l.9,1.789c.462-.231,2.782-1.478,3.081-3.321a2.551,2.551,0,0,0-.821-2.281,2.772,2.772,0,0,0-2.2-.846c-2.145.153-4.088,2.667-4.3,2.953l1.6,1.2C34.306,41.926,35.666,40.512,36.646,40.442Z"/><path d="M27.354,47.442c.972.068,2.337,1.484,2.847,2.159l1.6-1.2c-.215-.286-2.158-2.8-4.3-2.953a2.767,2.767,0,0,0-2.2.846,2.551,2.551,0,0,0-.821,2.281c.3,1.843,2.619,3.09,3.081,3.321l.9-1.789c-.749-.377-1.9-1.228-2-1.853-.011-.074-.039-.245.262-.546A.762.762,0,0,1,27.354,47.442Z"/><path d="M36.646,47.442a.781.781,0,0,1,.647.265c.3.3.273.472.262.546-.1.625-1.255,1.476-2,1.853l.9,1.789c.462-.231,2.782-1.478,3.081-3.321a2.551,2.551,0,0,0-.821-2.281,2.769,2.769,0,0,0-2.2-.846c-2.145.153-4.088,2.667-4.3,2.953l1.6,1.2C34.306,48.926,35.666,47.512,36.646,47.442Z"/></g></svg>
