<?xml version="1.0" encoding="UTF-8"?>
<svg xmlns="http://www.w3.org/2000/svg" xmlns:xlink="http://www.w3.org/1999/xlink" version="1.1" id="Capa_1" x="0px" y="0px" viewBox="0 0 512 512" style="enable-background:new 0 0 512 512;" xml:space="preserve" width="512" height="512">
<path style="fill:none;stroke:#000000;stroke-width:15;stroke-linecap:round;stroke-linejoin:round;stroke-miterlimit:10;" d="&#10;&#9;M282.301,139.42c-8.593-0.447-16.443,2.733-22.161,8.145c-2.32,2.196-5.959,2.196-8.278,0c-5.718-5.412-13.568-8.593-22.161-8.145&#10;&#9;c-15.205,0.792-27.532,13.15-28.288,28.357c-0.544,10.955,4.806,20.701,13.156,26.342l38.012,26.043c2.061,1.412,4.779,1.412,6.84,0&#10;&#9;l37.826-25.918c8.435-5.607,13.862-15.38,13.346-26.381C309.877,152.621,297.537,140.213,282.301,139.42z"/>
<path style="fill:none;stroke:#000000;stroke-width:15;stroke-linecap:round;stroke-linejoin:round;stroke-miterlimit:10;" d="&#10;&#9;M229.009,504.5h-19.697c-14.13,0-25.584-11.454-25.584-25.584v-85.067h144.544v85.067c0,14.13-11.454,25.584-25.584,25.584h-37.679"/>
<path style="fill:none;stroke:#000000;stroke-width:15;stroke-linecap:round;stroke-linejoin:round;stroke-miterlimit:10;" d="&#10;&#9;M180.822,7.5h-13.847c-7.814,0-13.965,6.669-13.335,14.458l30.088,371.892h144.544L358.36,21.958&#10;&#9;c0.63-7.789-5.521-14.458-13.335-14.458H216.822"/>
<path style="fill:none;stroke:#000000;stroke-width:15;stroke-linecap:round;stroke-linejoin:round;stroke-miterlimit:10;" d="&#10;&#9;M270.397,445.46h-28.795c-10.284,0-18.621-8.337-18.621-18.621v-32.99h66.037v32.99C289.018,437.123,280.681,445.46,270.397,445.46z&#10;&#9;"/>
<line style="fill:none;stroke:#000000;stroke-width:15;stroke-linecap:round;stroke-linejoin:round;stroke-miterlimit:10;" x1="222.982" y1="272.544" x2="289.018" y2="272.544"/>
<line style="fill:none;stroke:#000000;stroke-width:15;stroke-linecap:round;stroke-linejoin:round;stroke-miterlimit:10;" x1="222.982" y1="309.943" x2="289.018" y2="309.943"/>
<line style="fill:none;stroke:#000000;stroke-width:15;stroke-linecap:round;stroke-linejoin:round;stroke-miterlimit:10;" x1="185.509" y1="44.539" x2="326.491" y2="44.539"/>















</svg>
