<?xml version="1.0" encoding="UTF-8"?>
<svg xmlns="http://www.w3.org/2000/svg" id="Layer_32" data-name="Layer 32" viewBox="0 0 64 64" width="512" height="512"><path d="M45,19.888V9a1,1,0,0,0-1-1H42.931A8.009,8.009,0,0,0,35,1a1,1,0,0,0-.949.684l-.366,1.1a1.775,1.775,0,0,1-3.368,0l-.368-1.1A1,1,0,0,0,29,1a8.006,8.006,0,0,0-7.93,7H20a1,1,0,0,0-1,1V19.888a11.84,11.84,0,0,0,1.8,6.281A21.021,21.021,0,0,1,24,37.322a20.9,20.9,0,0,1-1.814,8.546A25.213,25.213,0,0,0,20,56.171,6.836,6.836,0,0,0,26.829,63H37.171A6.836,6.836,0,0,0,44,56.171a25.213,25.213,0,0,0-2.186-10.3,21.04,21.04,0,0,1,1.385-19.7A11.84,11.84,0,0,0,45,19.888ZM28.292,3.042l.126.377a3.775,3.775,0,0,0,7.163,0l.126-.376A6,6,0,0,1,40.906,8H23.094A6,6,0,0,1,28.292,3.042ZM43,10v4H21V10ZM41.5,25.109a23.046,23.046,0,0,0-1.516,21.572A23.228,23.228,0,0,1,42,56.171,4.835,4.835,0,0,1,37.171,61H26.829A4.835,4.835,0,0,1,22,56.171a23.228,23.228,0,0,1,2.014-9.49A22.9,22.9,0,0,0,26,37.322a23.026,23.026,0,0,0-3.5-12.213A9.835,9.835,0,0,1,21,19.888V16H43v3.888A9.835,9.835,0,0,1,41.5,25.109Z"/><path d="M32,18a4,4,0,1,0,4,4A4,4,0,0,0,32,18Zm0,6a2,2,0,1,1,2-2A2,2,0,0,1,32,24Z"/><path d="M34,28H30a1,1,0,0,0-1,1v6a1,1,0,0,0,1,1h4a1,1,0,0,0,1-1V29A1,1,0,0,0,34,28Zm-1,6H31V30h2Z"/></svg>
