<?xml version="1.0" encoding="UTF-8" standalone="no"?>
<!-- Created with Inkscape (http://www.inkscape.org/) -->

<svg
   version="1.1"
   id="svg2295"
   xml:space="preserve"
   width="682.66669"
   height="682.66669"
   viewBox="0 0 682.66669 682.66669"
   xmlns="http://www.w3.org/2000/svg"
   xmlns:svg="http://www.w3.org/2000/svg"><defs
     id="defs2299"><clipPath
       clipPathUnits="userSpaceOnUse"
       id="clipPath2309"><path
         d="M 0,512 H 512 V 0 H 0 Z"
         id="path2307" /></clipPath></defs><g
     id="g2301"
     transform="matrix(1.3333333,0,0,-1.3333333,0,682.66667)"><g
       id="g2303"><g
         id="g2305"
         clip-path="url(#clipPath2309)"><g
           id="g2311"
           transform="translate(194.3091,56.4619)"><path
             d="m 0,0 c -12.579,-13.079 -20.211,-30.146 -20.211,-48.836 h 164.875 c 0,18.69 -7.633,35.757 -20.212,48.836"
             style="fill:none;stroke:#000000;stroke-width:15;stroke-linecap:butt;stroke-linejoin:miter;stroke-miterlimit:10;stroke-dasharray:none;stroke-opacity:1"
             id="path2313" /></g><g
           id="g2315"
           transform="translate(341.229,125.7754)"><path
             d="m 0,0 c -14.909,17.98 -35.5,31.079 -59.021,36.539 4.173,54.19 4.661,135.655 -13.026,232.196"
             style="fill:none;stroke:#000000;stroke-width:15;stroke-linecap:butt;stroke-linejoin:miter;stroke-miterlimit:10;stroke-dasharray:none;stroke-opacity:1"
             id="path2317" /></g><g
           id="g2319"
           transform="translate(241,56.4619)"><path
             d="m 0,0 h 125.202 c 0,21 -5.956,40.607 -16.272,57.227"
             style="fill:none;stroke:#000000;stroke-width:15;stroke-linecap:butt;stroke-linejoin:miter;stroke-miterlimit:10;stroke-dasharray:none;stroke-opacity:1"
             id="path2321" /></g><g
           id="g2323"
           transform="translate(177.854,333.7065)"><path
             d="m 0,0 c 6.456,-55.55 5.387,-102.646 2.715,-135.732 -3.991,-49.438 -12.381,-79.657 -12.381,-79.657 -12.178,-17.557 -19.32,-38.87 -19.32,-61.856 h 77.132"
             style="fill:none;stroke:#000000;stroke-width:15;stroke-linecap:butt;stroke-linejoin:miter;stroke-miterlimit:10;stroke-dasharray:none;stroke-opacity:1"
             id="path2325" /></g><g
           id="g2327"
           transform="translate(154.7085,398.4687)"><path
             d="m 0,0 c -0.642,18.34 -2.167,37.208 -7.065,51.596 -6.368,18.705 2.387,61.289 47.757,53.329 45.37,-7.96 139.293,-101.087 19.103,-157.6 0,0 -50.742,-24.675 -56.414,-4.776 -2.48,8.704 -2.648,24.366 -2.989,41.984"
             style="fill:none;stroke:#000000;stroke-width:15;stroke-linecap:butt;stroke-linejoin:miter;stroke-miterlimit:10;stroke-dasharray:none;stroke-opacity:1"
             id="path2329" /></g><g
           id="g2331"
           transform="translate(225.9331,445.8491)"><path
             d="m 0,0 c 7.29,-8.328 12.921,-17.818 14.151,-27.018 0.833,-6.233 -0.519,-11.54 -4.384,-17.209 -1.778,-2.605 -4.459,-5.776 -8.497,-9.308"
             style="fill:none;stroke:#000000;stroke-width:15;stroke-linecap:butt;stroke-linejoin:miter;stroke-miterlimit:10;stroke-dasharray:none;stroke-opacity:1"
             id="path2333" /></g><g
           id="g2335"
           transform="translate(220.8081,158.7661)"><path
             d="M 0,0 C 11.472,4.119 23.837,6.363 36.727,6.363 45.213,6.363 53.473,5.39 61.4,3.55"
             style="fill:none;stroke:#000000;stroke-width:15;stroke-linecap:butt;stroke-linejoin:miter;stroke-miterlimit:10;stroke-dasharray:none;stroke-opacity:1"
             id="path2337" /></g><g
           id="g2339"
           transform="translate(293.1826,113.5933)"><path
             d="M 0,0 H 15.5"
             style="fill:none;stroke:#000000;stroke-width:15;stroke-linecap:butt;stroke-linejoin:miter;stroke-miterlimit:10;stroke-dasharray:none;stroke-opacity:1"
             id="path2341" /></g><g
           id="g2343"
           transform="translate(277.6826,98.5933)"><path
             d="M 0,0 H 15.5"
             style="fill:none;stroke:#000000;stroke-width:15;stroke-linecap:butt;stroke-linejoin:miter;stroke-miterlimit:10;stroke-dasharray:none;stroke-opacity:1"
             id="path2345" /></g></g></g></g></svg>
