<svg id="Layer_1" enable-background="new 0 0 511.959 511.959" height="512" viewBox="0 0 511.959 511.959" width="512" xmlns="http://www.w3.org/2000/svg"><g><path d="m344.913 213.37c-7.762-17.567-34.058-10.811-33.504 7.591.184 6.093.215 12.4.11 16.823-9.543 3.004-17.039 10.531-19.889 20.438-6.059 21.047-11.708 29.849-16.501 33.83-3.972-6.235-10.428-17.868-14.9-33.443-9.1-31.692-6.128-63.959 8.832-95.904 39.67-84.706 45.688-137.449 17.89-156.763-9.113-6.333-23.718-7.676-40.066-3.685-13.95 3.405-48.867 16.013-71.74 59.44-4.52 8.579 8.753 15.571 13.271 6.99 20.031-38.03 50.049-48.935 62.025-51.858 14.144-3.451 23.896-1.386 27.951 1.431 27.578 22.03-3.606 95.877-22.914 138.083-28.465 58.013-12.28 119.599 11.508 150.244 2.001 2.49 5.361 3.44 8.371 2.362 16.932-6.058 24.756-25.967 30.688-46.58 1.745-6.067 6.969-10.362 13.308-10.942 3.479-.318 6.278-2.997 6.748-6.459.67-4.932.505-17.695.302-24.459-.072-2.334 3.557-3.866 4.789-1.077 26.219 55.801-8.481 99.803-47.606 118.979-3.45 1.558-5.199 5.443-4.077 9.058 3.928 12.657 6.569 25.697 7.918 38.64l-42.336-9.789c-9.639-2.144-17.188-11.265-17.188-20.765v-14.689c0-17.613-13.452-32.609-31.244-36.289 1.541-70.707-37.341-129.824-20.854-201.196 2.161-9.453-12.46-12.795-14.623-3.344-20.073 85.387 35.28 155.267 16.269 237.892-11.059 46.965-13.402 112.626 18.257 152.604 21.031 27.674 60.59 28.991 82.556 1.299 6.217-7.442-5.293-17.056-11.512-9.616-20.829 25.663-52.665 15.297-65.748-11.024 36.84-21.826 26.757-77.435-14.982-85.421.634-14.787 2.607-29.867 6.031-44.404 1.719-7.302 2.899-14.465 3.644-21.509 9.188 2.817 17.208 10.625 17.208 21.008v14.689c0 16.518 12.438 31.739 28.871 35.394l46.649 10.786c.386 16.69-1.442 32.889-5.534 47.53-2.538 9.084 11.809 13.473 14.447 4.037 8.749-31.306 8.082-68.959-1.723-104.234 41.276-24.396 78.266-67.509 49.298-135.698zm-136.039 217.902c0 10.558-5.377 20.282-13.904 26.007-5.566-15.865-8.704-35.409-9.128-56.178 13.229 3.66 23.032 15.885 23.032 30.171z"/><path d="m220.925 63.356c-3.133-2.709-7.868-2.369-10.579.763-1.144 1.321-27.95 33.01-23.792 90.45.684 9.441 15.671 8.733 14.961-1.083-3.674-50.757 19.817-79.128 20.189-79.569 2.693-3.134 2.347-7.856-.779-10.561z"/></g></svg>